<svg  viewBox="0 0 12 13"
      fill="#FAB82E"
      xmlns="http://www.w3.org/2000/svg">
  <!--fill="#EB5835" - red fill -->
<path fill-rule="evenodd" clip-rule="evenodd"
      d="M11.8336 6.52492C11.8336 9.74658 9.2219 12.3583 6.00023 12.3583C2.77857 12.3583 0.166901 9.74658 0.166901 6.52492C0.166901 3.30326 2.77857 0.691589 6.00023 0.691589C9.2219 0.691589 11.8336 3.30326 11.8336 6.52492ZM5.4169 4.19159C5.4169 3.86942 5.67807 3.60826 6.00023 3.60826H6.00607C6.32823 3.60826 6.5894 3.86942 6.5894 4.19159C6.5894 4.51376 6.32823 4.77492 6.00607 4.77492H6.00023C5.67807 4.77492 5.4169 4.51376 5.4169 4.19159ZM6.00023 5.94159C6.3224 5.94159 6.58357 6.20276 6.58357 6.52492V8.85826C6.58357 9.18042 6.3224 9.44159 6.00023 9.44159C5.67807 9.44159 5.4169 9.18042 5.4169 8.85826V6.52492C5.4169 6.20276 5.67807 5.94159 6.00023 5.94159Z"
      stroke="none"/>
</svg>
